<svg xmlns="http://www.w3.org/2000/svg" width="226.111" height="191.385" fill="none"><mask id="a" width="226.111" height="191.385" x="0" y="0" mask-type="alpha" maskUnits="userSpaceOnUse"><path fill="#FFF" d="m48.254 0 177.857 71.719-48.254 119.666L0 119.666 48.254 0Z"/></mask><g mask="url(#a)"><path fill="#FFFFFE" fill-rule="evenodd" d="M209.991 99.008c-.025-.017-.049-.028-.074-.049a1.037 1.037 0 0 1-.153-.166c.123.024.233.06.246.125a.135.135 0 0 1-.019.09ZM220.762 84.3l.005-.19-.022-.188c-.061-.549-.448-2.38-2.813-2.903-.386-.085-.776-.163-1.164-.242l-.221-.045c-.925-.187-5.079-.955-6.356-1.146a104.8 104.8 0 0 1-1.706-.291c-2.144-.377-3.72-.646-4.451-.69-.359-.021-.76-.074-1.182-.13a43.183 43.183 0 0 0-.769-.097c-.919-.103-1.72.08-2.518.578-.24.152-.466.323-.677.513a6.16 6.16 0 0 0-.525-.827c-.843-1.105-2.424-1.748-2.491-1.776-.615-.247-2.105-.69-2.713-.782-.557-.086-1.871-.202-2.851-.026-.759.137-2.783.88-3.679 1.637-.16.135-.313.276-.458.423a6.188 6.188 0 0 0-.489-1.01c-.86-1.418-2.197-2.04-3.131-2.387-.279-.103-.702-.262-1.201-.331-.131-.02-.623-.11-.792-.148a14.07 14.07 0 0 0-.606-.116c-.29-.66-.591-1.315-.904-1.964l.734-.641-.804-1.87c-2.315-5.384-5.942-9.77-9.458-13.802-10.038-11.51-23.411-18.363-39.736-20.372-7.865-.968-18.771.655-29.175 4.342-4.956 1.756-16.6 6.468-20.048 12.99a62.843 62.843 0 0 0-8.42 9.27c-.803-.375-2.062-.578-3.597.5l-.045.03a7.406 7.406 0 0 1-.717.448c-.473.252-.841.411-1.14.494l-.078-.16c-1.05-2.19-2.284-4.081-3.669-5.62a47.726 47.726 0 0 0-1.99-2.082c-.719-.708-1.544-1.204-2.207-1.603l-.228-.137c-.874-.531-1.735-.818-2.495-1.072-.23-.077-.46-.153-.686-.237a16.486 16.486 0 0 0-2.763-.748c-2.482-.472-4.899-.31-7.156-.07-1.35.143-2.573.287-3.852.611a25.02 25.02 0 0 0-3.549 1.186c-2.398 1.009-4.524 2.355-6.495 3.645-.5.329-1.082.718-1.643 1.19-.438.367-.815.75-1.148 1.087l-.312.316c-.235.233-.481.455-.725.677-.275.25-.55.5-.815.76-1.31 1.28-2.77 3.105-4.344 5.426-1.005 1.483-1.704 2.789-2.446 4.171-.198.37-.402.751-.62 1.15a31.226 31.226 0 0 0-2.689 6.603 42.224 42.224 0 0 0-.847 3.72c-.037.201-.133.66-.24 1.17-.218 1.05-.366 1.767-.425 2.142-.206 1.305-.222 2.556-.22 3.829.001 1.319.048 2.396.146 3.388.272 2.75.99 5.271 2.132 7.492a24.758 24.758 0 0 0 1.694 2.843c.732 1.051 1.471 2.071 2.462 3.001 1.909 1.792 4 2.937 5.796 3.821 2.013.992 4.24 1.645 6.802 2.002.602.082 1.204.158 1.807.22.323.034.623.033 2.46-.117-.002.005-.004.01-.008.014l-.029.059c-.168.328-.519 1.011-.505 1.906.022 1.467.922 2.738 2.241 3.163.111.035.251.073.413.102.836.147 2.28.06 3.58-1.699l.479-.643c.625-.839 1.678-2.253 2.186-2.939.57-.773 1.052-1.529 1.519-2.26.189-.297.38-.596.578-.898.164-.25.992-1.341 1.39-1.866l.289-.38c.209.673.473 1.328.79 1.958.371.739.959 1.832 1.783 2.799.895 1.05 1.89 1.82 2.658 2.372 1.015.73 1.883 1.264 2.734 1.68.421.206 1.33.613 2.053.82l.446.131c.448.134.898.265 1.348.392a62.924 62.924 0 0 0 3.477 9.25c1.941 5.765 5.353 11.262 10.724 17.28 9.543 10.694 21.132 17.274 34.539 19.633 2.79.491 5.66.799 8.605.924 17.03.718 32.171-4.738 45.005-16.216 2.565-2.294 5.472-4.895 6.837-9.029l.008-.026a62.124 62.124 0 0 0 2.022-2.663c2.591.432 5.837.962 6.818 1.08.636.076 1.256.156 1.839.275.313.065.626.119.938.171.395.067.764.129 1.075.213.998.269 2.006.498 3.022.686a3.96 3.96 0 0 0 2.234-.169c.171.187.355.362.559.516a4.494 4.494 0 0 0 1.937.828c1.619.285 3.395-.246 4.505-1.506 1.018-1.157 1.515-2.622 1.333-3.921-.157-1.118-.779-2.075-1.751-2.694a4.591 4.591 0 0 0-1.491-.613c1.279-2.192 1.967-3.628 2.046-4.272a3.051 3.051 0 0 0-1.699-3.141c-1.366-.795-3.287-.73-4.761 1.17-.705.74-4.391 3.257-5.465 3.785-.643.319-1.304.601-1.979.843-.475.168-.849.278-1.135.27-.491-.015-1.037-.103-1.699-.214a86.044 86.044 0 0 0-.88-.144l.036-.089c.106-.272.282-.596.468-.938.086-.157.171-.315.253-.473.207-.388 1.614-2.695 2.544-4.221l.636-1.043a3.308 3.308 0 0 0 1.206 2.387c.369.3.799.515 1.261.629.982.242 2.033.018 2.889-.614.926-.687 1.468-1.616 1.864-2.295.071-.121.139-.24.208-.349.279-.446.562-.887.846-1.329.183-.284.366-.567.547-.854.228-.359.485-.725.758-1.115.574-.82 1.226-1.752 1.732-2.815l.021-.043c.271-.565.99-2.067.202-3.596-.2-.39-.479-.733-.82-1.007a3.117 3.117 0 0 0-1.16-.581c-.7-.18-1.327-.09-1.831.077l.526-.708c.212-.283.417-.569.622-.856.222-.311.444-.622.676-.925.174-.225.342-.455.511-.687.276-.377.537-.734.791-1.017.096-.108.194-.216.289-.317l.188.029c.686.109 1.374.217 2.053.341a15.62 15.62 0 0 1 2.011.497c.454.148.696.265.821.337.003.112.003.252.003.366l.001.051c0 .308-.024.535-.075.693-.071.216-.144.431-.216.646a25.957 25.957 0 0 0-.596 1.913l-.044.127c-.333.941-.953 2.694.154 4.205.62.848 1.597 1.313 2.679 1.275 1.767-.06 2.727-1.408 3.087-1.915a.964.964 0 0 0 .058-.084c.518-.602.866-1.227 1.138-1.758.246-.482.615-.995 1.006-1.537.115-.161.231-.322.344-.483.413-.585.772-1.176 1.121-1.746l.196-.32c.496-.807 1.114-1.812 1.453-3.024.293-1.054.252-1.9.046-2.569.143-.001.287.005.428-.005 2.851-.219 5.164-2.503 5.265-5.217a4.431 4.431 0 0 0-1.57-3.525 4.775 4.775 0 0 0-3.975-1.035l-.001-.001c-.104.02-.206.046-.308.075.251-.395.501-.783.758-1.153l.198-.288c.098-.142.194-.282.293-.421.185-.263.366-.53.548-.797.254-.376.495-.73.738-1.054.449-.598.841-1.194 1.22-1.77.134-.203.264-.403.395-.597.085.232.198.453.337.663a3.07 3.07 0 0 0 2.042 1.331c.568.1 2.428.227 3.526-2.038l.008-.016c.044-.076.111-.18.186-.3.768-1.224 1.241-2.024 1.263-2.998l.001-.001Z"/></g><g mask="url(#a)"><path fill="#FFF" fill-rule="evenodd" d="M181.602 110.293c-5.762 32.633-36.853 54.439-69.445 48.705-32.591-5.735-54.34-36.838-48.577-69.471 5.763-32.633 36.854-54.438 69.445-48.703 32.591 5.734 54.34 36.836 48.578 69.469h-.001Z"/></g><path fill="#000" fill-rule="evenodd" d="M132.983 41.141c-2.896-.286-5.712-.783-8.533-.798-6.174-.033-5.426-.653-4.417 5.321.023.133.17.244.341.477 4.519-.39 9.933 1.809 12.61-5h-.001Zm-16.262-.81-14.205 3.933c1.161 1.453 1.947 2.496 2.803 3.477.323.37.868.907 1.212.84 3.752-.734 7.484-1.573 11.376-2.417l-1.186-5.833Zm15.406 5.895c12.901 1.696 24.352 6.247 34.485 14.108-1.029-1.487-2.112-2.88-3.362-4.101-6.432-6.285-14.082-10.483-22.62-13.148-4.266-1.33-5.414-.971-8.503 3.141ZM82.572 56.378c1.694-8.815 30.248-19.672 47.027-17.636 14.963 1.817 27.911 7.896 37.928 19.441 3.481 4.012 6.863 8.174 8.967 13.111l-.739.65c-.657-.518-1.406-.954-1.96-1.567-10.963-12.143-24.555-19.312-40.709-21.614-.761-.108-2.131.036-2.273.415-.314.842-.334 2.077.08 2.845.684 1.264 1.689 2.42 2.768 3.383 3.924 3.507 7.952 6.895 11.9 10.375.864.761 1.56 1.713 2.334 2.577l-.532.682c-.604-.3-1.3-.49-1.798-.914a1309.008 1309.008 0 0 1-13.721-11.818c-2.259-1.977-4.251-4.153-3.55-7.861-2.363.036-4.438-.05-6.475.194-.433.052-1.091 1.346-1.028 2.004.371 3.87.943 7.718 1.401 11.58.093.779-.009 1.583-.022 2.376l-.803.213c-.319-.826-.784-1.627-.933-2.484a333.049 333.049 0 0 1-1.774-11.294c-.221-1.609-.803-2.407-2.553-2.034-1.283.273-2.617.29-3.904.549-1.515.304-3.422.318-4.377 1.26-.824.812-.549 2.75-.764 4.19-.32 2.15-.798 4.196-3.862 5.395 1.121-3.12 2.632-5.627 1.248-8.863l-14.071 6.432-.615-.838c.668-.647 1.233-1.494 2.021-1.907 3.231-1.694 6.53-3.26 9.807-4.869.611-.3 1.231-.58 1.848-.87-1.88-3.973-2.914-4.56-6.328-2.5-4.039 2.437-7.814 5.322-11.667 8.063-.84.596-1.529 1.407-2.286 2.12l-.585-.785Zm47.617 64.993 5.194 36.993c13.62-3.105 24.454-10.095 33.559-20.167-1.116 3.379-3.591 5.624-6.033 7.81-12.222 10.943-26.566 16.183-42.919 15.5-16.418-.686-30.134-7.315-41.065-19.576-5.126-5.751-9.424-12.037-11.127-19.879 7.128 14.33 17.016 25.83 32.054 32.346-6.565-12.873-10.76-18.794-11.628-33.28l1.041-.351c.288.767.764 1.514.838 2.301 1.226 12.936 4.706 17.479 10.82 28.823 1.695 3.145 3.924 4.929 7.518 5.729 7.463 1.661 14.902 2.42 22.521 1.527 2.055-.241 2.727-.875 2.412-3.056-1.488-10.328-2.82-20.679-4.182-31.026-.153-1.17-.147-2.362-.215-3.544l1.212-.15ZM62.477 65.548c.507 1.067.985 2.17 1.297 3.31.257.94.451 1.911.406 2.88-.012.264-.046 1.31-.08 1.595-.05.396-.112.79-.188 1.18a82.58 82.58 0 0 0-.239 1.278c-.051.29-.122.727.272.809.4.082.581-.448.743-.723.272-.461.6-.834.937-1.247.3-.37.597-.74.898-1.11.734-.903 1.409-1.816 2.11-2.746.579-.766 2.398-3.32 2.585-3.856.138-.394.635-.908.216-1.286-.338-.304-.728.008-1.022.21-.321.22-.647.427-.991.609-.962.508-1.955.915-3.058.876-.465-.016-1.257-.203-1.463-.662-.174-.386-.361-.765-.546-1.147-.86-1.778-1.923-3.49-3.255-4.96a45.452 45.452 0 0 0-1.885-1.962c-.554-.543-1.281-.95-1.94-1.35-.85-.514-1.803-.742-2.723-1.085a14.089 14.089 0 0 0-2.319-.627c-2.101-.4-4.254-.272-6.37-.054-1.167.12-2.337.248-3.477.532a22.293 22.293 0 0 0-3.161 1.043c-2.159.897-4.114 2.117-6.064 3.385-.475.309-.944.622-1.38.985-.46.384-.865.823-1.291 1.242-.505.498-1.049.952-1.557 1.445-1.416 1.376-2.886 3.358-3.987 4.977-1.182 1.739-1.914 3.232-2.924 5.077a27.974 27.974 0 0 0-2.443 5.995c-.315 1.14-.575 2.3-.785 3.465-.094.521-.559 2.672-.647 3.24-.175 1.122-.182 2.25-.178 3.383.004 1.04.037 2.08.141 3.115.23 2.257.811 4.461 1.863 6.481.448.875.954 1.719 1.515 2.526.635.904 1.289 1.808 2.1 2.565 1.532 1.432 3.275 2.44 5.15 3.361 1.904.936 3.888 1.462 5.984 1.756a47.41 47.41 0 0 0 1.722.214c.24.025 2.151-.136 2.305-.146.3-.019.596-.09.897-.095a2.185 2.185 0 0 1 1.538.577c.234.209.489 1.019.479 1.283-.013.338-.005.649-.112 1.259-.082.468-.303.811-.412 1.033-.1.205-.253.454-.25.689.009.441.407 1.033 1.212-.049.177-.239 1.954-2.611 2.661-3.566.737-.992 1.33-1.988 2.01-3.02.32-.487 1.757-2.34 2.122-2.835.257-.348.773-1.139.914-1.578.13-.404-.5-.7-.98-.566-.439.122-.858.59-1.216.86-.47.352-.97.668-1.466.981-.973.615-1.992 1.28-3.093 1.633a17.095 17.095 0 0 1-3.45.732c-1.199.124-2.296.237-3.498.207-1.168-.029-2.156-.03-3.294-.319-.26-.066-.865-.298-1.08-.454-.218-.159-.413-.401-.585-.606-.345-.412-.625-.878-.885-1.346a24.109 24.109 0 0 1-1.182-2.4 18.656 18.656 0 0 1-1.392-6.495c-.07-2.31.422-4.607.87-6.86.43-2.156 1.036-4.232 1.882-6.261.81-1.944 1.628-3.608 2.805-5.343.754-1.113 1.643-2.285 2.376-3.411 1.19-1.83 2.735-3.61 4.123-5.298 1.257-1.528 2.564-2.993 4.004-4.354 1.6-1.513 3.223-3.003 5.041-4.257.897-.618 1.82-1.232 2.848-1.61.462-.171.944-.348 1.436-.393a7.122 7.122 0 0 1 1.658.06c.551.078 1.15.167 1.66.394.488.217.968.466 1.428.733.728.424 1.37 1.212 1.93 1.838.602.672 1.072 1.432 1.537 2.198.414.68.823 1.36 1.193 2.066Z"/><path fill="#000" fill-rule="evenodd" d="M79.917 95.248a20.509 20.509 0 0 1-1.323 3.41c-.706 1.41-1.455 2.815-2.323 4.133-.498.756-.893 1.573-1.387 2.331-.479.736-1.028 1.409-1.612 2.064-1.039 1.162-2.133 2.281-3.505 3.048-1.443.806-2.621.884-4.624.824-1.37-.223-2.996-.679-3.711-2.026-.871-1.642-.791-3.62-.494-5.398.216-1.3.487-2.619 1.02-3.83a42.218 42.218 0 0 1 2.278-4.442c1.577-2.68 3.295-5.33 5.498-7.542 1.2-1.205 2.614-2.171 4.111-2.97.742-.397 1.512-.778 2.359-.88.362-.044.756-.071 1.107.05.201.068.474.178.658.283.053.03.792.549.934.693.17.17.329.51.44.722.203.388.345.753.499 1.162.299.795.394 1.62.492 2.468.113.968.054 1.966.018 2.938-.033 1-.18 1.994-.435 2.962Zm.412 14.038c1.327-1.246 2.465-2.621 3.581-4.057.967-1.245 1.865-2.488 2.548-3.911.424-.887.867-1.8 1.213-2.72.33-.876.52-1.793.67-2.72.284-1.759.208-3.579-.308-5.286a29.12 29.12 0 0 0-1.02-2.798c-.34-.813-.792-1.555-1.305-2.274a11.07 11.07 0 0 0-1.55-1.727c-.659-.6-1.291-1.129-2.048-1.598-.767-.474-1.576-1.065-2.428-1.372-.803-.289-1.656-.542-2.497-.685a12.927 12.927 0 0 0-2.81-.181c-.445.019-.956.04-1.402.062-.466.024-.929.1-1.385.194-1.84.378-3.68 1.11-5.34 1.979-.824.431-1.76.867-2.524 1.396-.749.519-1.44.939-2.203 1.444-1.431.947-2.73 2.108-3.872 3.39-1.019 1.144-1.891 2.167-2.587 3.41-.518.922-.828 1.858-1.142 2.806a15.482 15.482 0 0 0-.63 2.752c-.23 1.67-.402 3.322-.367 5.005.021.954.235 1.969.41 2.908.155.831.458 1.623.837 2.376.39.774.841 1.564 1.406 2.225.63.739 1.364 1.336 2.15 1.902.735.529 1.506 1.033 2.32 1.431.425.208 1.135.51 1.59.641.386.111 1.697.509 2.121.609.506.118 1.149.252 1.662.332.984.154 1.8.131 2.791.006.967-.121 1.91-.354 2.84-.637.467-.141.92-.317 1.386-.465.423-.135.848-.257 1.25-.435.324-.145.678-.305 1.012-.427.447-.162.837-.355 1.263-.564.855-.417 1.657-.938 2.43-1.488.666-.473 1.34-.963 1.938-1.523Zm63.697-13.247c.521.175.897.38 1.228.828.319.43.556.891.504 1.445-.106 1.128-.42 2.302-.751 3.382-.152.497-.361.953-.554 1.433-.073.18-.148.381-.047.566.099.18.296.236.482.157.394-.166.703-.76.934-1.099.122-.179 2.162-3.186 2.869-4.204.382-.555.783-1.098 1.203-1.626.247-.309.554-.62.689-.999.172-.484-.032-1.006-.442-1.285-.688-.468-4.455-.9-5.456-1.05-.883-.133-4.662-.792-5.674-.974-1.051-.186-2.091-.44-3.15-.583-1.096-.148-2.176-.35-3.27-.513a55.635 55.635 0 0 1-3.391-.604c-.492-.105-.974-.203-1.477-.231-.212-.013-.968-.019-1.116.18-.482.64.954.808 1.087 1.23.096.302-.194.843-.313 1.126-.184.44-.349.89-.591 1.303-.487.83-.915 1.705-1.434 2.515-.414.646-.855 1.285-1.23 1.956-.167.299-.324.602-.492.899a.262.262 0 0 0 .031-.015c-.43.652-.77 1.362-1.184 2.025-.475.762-.997 1.493-1.463 2.262a75.362 75.362 0 0 0-1.84 3.222c-.375.694-.718 1.399-1.071 2.104-.353.707-.757 1.388-1.112 2.095-.48.956-2.969 5.399-3.799 6.621-.403.592-.742 1.22-1.18 1.788-.557.727-1.331 1.088-2.175 1.378-.267.092-.558.142-.792.31-.335.239-.347.637-.009.872.303.21.706.269 1.059.345.347.075.696.145 1.042.223.882.199 8.522 1.259 8.856 1.295.194.021.387.072.58.1.247.037.529.08.766-.026.366-.164.447-.595.236-.918-.183-.28-.493-.439-.706-.689-.281-.331-.312-.755-.221-1.168.075-.339 7.971-14.231 8.007-14.297.018-.111.072-.132.162-.064.202 0 .476.152.669.214.179.057.357.114.537.169.29.089.582.17.874.252.478.134.985.235 1.432.452.328.16.628.419.634.807.005.366-.088.728-.127 1.09-.035.321-.378 1.673.208 1.632.382-.027.695-.65.858-.935.182-.319.372-.634.547-.958.835-1.537 1.903-2.928 2.707-4.488.116-.222.525-.827.348-1.087-.214-.316-.685.21-.847.355-.644.576-1.29 1.205-2.059 1.608-.362.19-.779.348-1.182.416-.363.06-.694-.048-1.041-.137-.384-.098-.77-.196-1.154-.299-.584-.155-1.149-.344-1.732-.524.402-.613 2.111-3.765 2.274-4.088.501-.988 1.097-1.938 1.658-2.893.341-.58.637-1.188.944-1.786.248-.485.499-1.032.828-1.463l-.03.025c.182-.275.42-.78.699-.949.263-.158.645-.196.942-.216a5.216 5.216 0 0 1 1.156.045c.38.06.757.191 1.135.268.823.17 1.642.306 2.454.525.822.223 1.654.415 2.473.65Zm-28.522-6.162c.658.224 1.252.685 1.73 1.185.253.265.489.56.645.895.09.194.125.3.078.515l-.034.154c-.124.581-1.077 2.936-1.26 3.195-.281.396-.924 1.139-.369 1.584.54.434 1.104-.302 1.391-.692.647-.879 1.188-1.86 1.797-2.767.219-.326.404-.674.661-.97.172-.199.33-.41.49-.62.339-.446.628-.929.986-1.36.334-.403 1.073-1.069.871-1.66-.18-.52-.83-.633-1.295-.705-.552-.087-1.105-.091-1.654-.193-.562-.105-1.129-.173-1.694-.253-.771-.11-1.54-.186-2.304-.336-.375-.075-.751-.145-1.127-.22-2.007-.405-4.049-.657-6.063-1.03-2.146-.396-4.327-.629-6.455-1.13-1.137-.267-2.387-.678-3.575-.575-.254.023-.641.073-.606.416.03.285.339.37.487.565.263.344.495.889.465 1.32-.032.476-.082.942-.31 1.37-.2.374-.411.743-.626 1.11-.433.746-.852 1.495-1.31 2.226-.55.875-1.047 1.778-1.614 2.644-.77 1.175-1.57 2.323-2.284 3.534a370.185 370.185 0 0 1-3.89 6.456c-.533.864-6.39 10.081-7.01 10.718-.513.527-1.194.504-1.856.685-.266.073-.601.17-.662.488-.068.365.299.496.578.567.401.1.814.131 1.22.199.656.109 8.458 1.697 8.988 1.811.494.106 1.35.363 1.683.245.25-.09.35-.357.27-.61-.08-.26-.329-.402-.542-.544-.182-.12-.371-.235-.469-.437-.177-.362-.145-.823-.043-1.199.159-.586.425-1.175.724-1.703.339-.594.676-1.189 1.036-1.771.346-.559 1.221-2.013 1.27-2.078.08-.104.47-.711.602-.902.735-1.062 1.396-2.163 2.1-3.245.45-.693 1.835-2.656 2.052-2.958.352-.489.663-1.148 1.217-1.426.177-.088.473-.343.654-.374.184-.032.493.106.673.142.263.053.53.097.795.148.442.085.879.19 1.321.273.182.035.364.068.546.106l.231.049c.125.027.54.037.614.128.057.07.022.358.018.464a1.541 1.541 0 0 1-.076.436c-.107.324-.298.601-.456.899-.156.292-.782 1.427-.089 1.426.596-.001 1.252-.725 1.607-1.139.307-.36.599-.743.874-1.13.345-.495.673-1.002.984-1.52.392-.638.85-1.292 1.027-2.033.113-.471.089-1.39-.583-.88-.537.408-.867 1.054-1.445 1.413l.051-.022c-.34.19-.653.423-.983.629l.027-.01c-.078.045-.154.098-.236.137-.221.105-.515.084-.757.074-.322-.015-.654-.109-.976-.162-.817-.133-1.886-.198-2.389-.948a9.579 9.579 0 0 1-.109-.167c-.087-.133-.123-.157-.071-.302.095-.261.312-.524.451-.764.194-.338.386-.675.562-1.02.365-.717.733-1.429 1.112-2.137.978-1.826 1.997-3.657 3.299-5.275a99.044 99.044 0 0 1 1.649-1.994c.124-.145.181-.247.361-.26.098-.007.202.01.3.012.485.015.959.033 1.439.11 1.602.262 3.18.623 4.753 1.033l-.068-.024c.201.06.402.118.6.185l.001-.001Zm49.39 31.846c.018-.139-.035-.273-.189-.306-.115-.024-.536-.616-1.31.404-.724.955-5.118 3.912-6.398 4.543-.738.366-1.496.688-2.271.966-.702.25-1.391.452-2.146.429-.691-.021-1.388-.134-2.068-.249-.856-.144-2.525-.403-2.497-.412-.338-.136-.885-.247-1.188-.567-.129-.135-.115-.575-.115-.755.002-.796.555-1.535.837-2.257.229-.587.554-1.127.845-1.684.397-.759 4.061-6.687 4.303-7.146.245-.465.52-.918.785-1.371.073-.123.134-.304.258-.34.126-.037.343.022.483.031.525.03 1.046.109 1.566.183.46.066.915.168 1.362.292.186.052.363.077.488.205.158.161.209.373.194.594-.03.482-.233 1.005-.385 1.462-.118.355-.273.695-.393 1.048-.114.332-.369.792-.201 1.137.175.359.583.302.855.101.592-.439.977-1.259 1.361-1.875.461-.736.935-1.46 1.4-2.193.764-1.202 1.704-2.33 2.317-3.62.132-.278.422-.844.261-1.155-.191-.372-.671-.055-.897.099-.8.541-1.344 1.351-2.057 1.985-.35.312-.789.594-1.249.699-.472.107-.936.002-1.4-.096-.598-.129-1.202-.227-1.803-.343a16.567 16.567 0 0 0-.991-.151c.792-1.143 4.38-6.023 5.374-7.353.447-.595.862-1.215 1.316-1.804.473-.615.911-1.28 1.428-1.857.268-.301 1.048-1.152 1.283-1.276.098-.053.7-.03.816-.044.154-.018.386.06.538.084.82.129 1.643.255 2.459.405.799.142 1.588.338 2.361.585 1.01.328 2.183.845 2.572 1.925.17.474.165.966.167 1.463.001.533-.047 1.057-.214 1.565-.265.811-.563 1.607-.774 2.435-.099.392-.885 2.092.009 2.061.508-.018.833-.694 1.12-1.027.308-.359.546-.775.766-1.206.427-.835 1.01-1.586 1.549-2.349.431-.613.824-1.274 1.215-1.913.446-.726.907-1.478 1.138-2.304.117-.418.219-.968-.13-1.304-.297-.286-2.638-.56-3.376-.686-.819-.138-1.635-.29-2.457-.412-.33-.049-7.746-1.36-8.734-1.558-.876-.176-6.15-1.378-6.588-1.525-.226-.076-.69-.314-.844.021a.536.536 0 0 0-.051.282c.015.025.057.168.09.219.122.188.32.58.341.704.037.229.052.457.03.688-.032.373-.222.571-.442.856-.426.549-.859 1.092-1.271 1.651-.925 1.256-1.766 2.567-2.642 3.856-.956 1.407-2.012 2.745-2.947 4.165-.693 1.052-1.315 2.168-1.925 3.27-.457.824-1.008 1.577-1.523 2.364-.41.634-.8 1.28-1.17 1.939-.442.777-.901 1.546-1.475 2.235-.362.434-3.314 5.303-3.625 5.926-.146.302-.306.597-.478.885-.187.305-.357.753-.705.907-.464.202-.934.39-1.41.564-.28.102-.599.176-.807.403-.292.318-.181.739.199.905.61.267 1.376.266 2.034.337.694.075 1.375.198 2.059.332 1.262.246 10.282 1.762 11.873 1.953.692.083 1.381.17 2.064.311.725.15 1.456.228 2.171.422.924.248 1.857.46 2.798.634.353.067.676.032.988-.165.301-.19.897-1.298 1.033-1.565.194-.381 1.253-2.62 1.672-3.314.484-.801 2.335-4.07 2.368-4.348ZM90.54 66.382c-.515 1.416-1.903 2.342-3.36 2.589-.526.09-1.003.033-1.525-.01-.42-.033-.848.005-1.262-.051-.435-.058-.87-.13-1.309-.16.774-.948 1.428-2.005 2.141-3 .594-.827 1.172-1.744 1.994-2.368.353-.268.923-.565 1.37-.502.523.072.966.201 1.402.505.443.31.73.693.8 1.236.076.601-.076 1.187-.25 1.76Zm-3.746 5.662a11.966 11.966 0 0 1-1.083 2.243c-.471.757-1.171 1.407-2.026 1.686-.816.265-1.787.349-2.639.278-.757-.063-1.494-.297-2.244-.413.663-1.355 1.444-2.685 2.258-3.953.417-.652.756-1.359 1.189-1.996.098-.144.17-.328.326-.354.117-.019.323.049.444.067a38.94 38.94 0 0 0 1.61.21c.546.058 1.293.055 1.715.452.518.488.635 1.114.45 1.78Zm7.63-6.533c-.042-.298-.085-.607-.23-.868a7.394 7.394 0 0 0-.484-.782c-.375-.511-1.01-.78-1.589-.984-.744-.264-4.455-.921-4.96-1.015-.573-.108-1.143-.225-1.717-.321-.751-.124-1.494-.286-2.25-.382-.298-.038-1.407-.312-1.07.262.027.045.073.082.103.14.043.079.063.181.093.265.045.124.092.246.14.368.117.299.164.464.01.756-.269.512-.688.964-1.038 1.42l-.645.84c-.37.483-.727.972-1.064 1.48-.55.829-1.163 1.61-1.718 2.434-.6.891-1.164 1.815-1.796 2.684-.537.737-1.115 1.445-1.65 2.183-.185.256-.348.528-.517.794-.292.46-.817.5-1.27.712-.194.09-.247.312-.043.428.102.059.302.073.418.091.424.07.853.1 1.277.16l.368.05c.044.007.112.002.152.021.101.049 1.547.297 1.802.344.236.044 2.024.327 2.248.364.288.045.576.1.86.164.876.206 1.733.438 2.623.574 1.27.196 2.584.5 3.876.456.526-.023 1.05-.087 1.568-.192.277-.054.537-.141.762-.317.093-.073.322-.193.394-.288.07-.09.446-.537.6-.702.188-.202.289-.478.436-.711.221-.351.385-.773.522-1.161.449-1.268.681-2.58-.068-3.784-.297-.477-.715-.805-1.217-1.049.387-.011.815-.135 1.182-.235.693-.188 1.37-.53 1.968-.924 1.05-.691 2.115-1.92 1.923-3.276Zm18.591.909c.167-.095.32-.282.265-.484-.058-.21-.284-.19-.469-.233-.497-.118-1.888-.335-1.999-.371-.264-.088-.642-.124-.909-.2-.408-.116-.967-.25-1.392-.136-.367.097-.457.415-.182.71.32.345.898.38 1.262.678.533.437-.226 1.43-.454 1.894-.245.499-2.775 4.53-3.392 5.408-.564.804-1.089 1.623-1.753 2.351-.698.765-1.469 1.447-2.368 1.967-.8.464-1.891.96-2.818.571a1.956 1.956 0 0 1-.584-.394 7.283 7.283 0 0 1-.226-.222c-.074-.076-.2-.814-.16-.953.065-.23.134-.461.207-.69.266-.833.711-1.802 1.098-2.655a49.94 49.94 0 0 1 1.254-2.602c.583-1.113 1.23-2.193 1.856-3.283.189-.332.403-.646.612-.966.212-.324.422-.725.767-.931.396-.237 2.114-.315 1.653-1.141-.163-.292-.533-.336-.827-.405-.26-.06-.53-.096-.803-.164-.841-.21-1.713-.294-2.565-.452-.625-.115-1.215-.268-1.847-.345-.21-.026-.826-.186-.89.151-.015.087.03.154.017.24-.014.084.308.48.444.61.062.06.249.238.277.267.048.051.081.161.097.226.04.16.014.18-.079.333l.032-.04c-.624.93-1.202 1.89-1.732 2.877-.322.601-.62 1.215-.952 1.81-.25.453-.526.892-.76 1.353-.552 1.088-1.1 2.214-1.544 3.35-.246.627-.453 1.3-.372 1.981.08.661.423 1.227.92 1.66.427.371.913.654 1.422.9.328.157.658.234.981.382.255.117 1.038.32 1.16.33.174.014.346.055.522.065.35.02.747.084 1.096.046.679-.073 1.347-.122 1.976-.391 2.035-.867 4.356-3.668 5.613-6.082.387-.744.793-1.479 1.192-2.216.396-.732.873-1.417 1.234-2.17.156-.324.308-.65.462-.977l.265-.548c.061-.129.225-.508.34-.597.185-.145.585-.084.827-.13.426-.08.847-.164 1.226-.382Zm18.117 3.3c-.159-.42-.937-.434-1.298-.508-.583-.119-1.166-.24-1.755-.328a18.23 18.23 0 0 1-1.567-.283c-.4-.096-.798-.198-1.201-.276-1.604-.307-3.24-.442-4.845-.75-.407-.077-.815-.155-1.222-.235-.784-.153-1.567-.203-2.356-.3-.499-.062-.997-.128-1.496-.183-.213-.023-.425-.079-.626 0-.204.08-.405.248-.568.393a3.48 3.48 0 0 0-.517.602c-.164.23-.406.402-.585.633-.215.276-.581.928 0 1.044.3.06.623-.184.866-.33.238-.143.469-.296.697-.452.554-.378 1.069-.723 1.752-.77.628-.044 1.272.058 1.889.165.294.051.587.109.881.158.157.026.782.037.851.165-.096.433-.538.849-.815 1.185-.356.435-.696.883-1.021 1.342a105.14 105.14 0 0 0-1.897 2.757 74.29 74.29 0 0 0-1.702 2.662c-.205.335-.422.662-.628.996-.184.299-1.471 2.25-1.922 2.927-.298.445-.668.823-1.189.989-.384.12-.859.114-1.153.43-.426.454.061.82.502.916.532.117 1.097.138 1.638.183.937.077 1.878.2 2.801.377.684.132 1.36.298 2.046.416.367.063.726.179 1.095.234.516.078.963-.268.722-.817-.14-.316-.569-.578-.652-.904-.098-.382.177-.805.354-1.117.262-.461.554-.897.839-1.344.744-1.169 1.465-2.354 2.25-3.495.996-1.45 2.05-2.865 2.985-4.356.254-.406.522-.8.816-1.178.175-.223.354-.443.536-.66.087-.106.248-.403.383-.46.048-.02.131.015.19.028.296.07.594.13.891.194.459.1.907.203 1.371.269.262.035.519.098.768.188.208.077.248.151.254.379.01.431-.231.854-.286 1.282-.061.474.335.847.629.349.259-.439.542-.87.8-1.313.177-.303.646-.823.495-1.204Zm23.514 4.465c.095.23.143.458.162.707.017.219-.035.54.12.722.36.417.764-.323.952-.553.254-.31.884-.892.773-1.34-.06-.238-.271-.247-.471-.294-.271-.062-.535-.158-.804-.229-1.148-.299-11.942-1.969-13.049-2.125a12.336 12.336 0 0 1-.608-.095c-.041-.008-.132-.016-.175-.036-.046-.023-.566-.083-.696-.041-.203.064-.373.114-.415.356-.045.268.158.486.363.624.106.07.436.177.473.286.047.141-.186.522-.246.648-.134.29-.273.575-.393.872-.783 1.908-1.912 3.66-2.958 5.43-.297.502-.535 1.036-.84 1.532-.297.484-.589.97-.88 1.458-.254.423-.511.855-.798 1.256-.161.225-.692 1.111-.865 1.33-.203.257-.36.326-.674.4-.247.057-.501.117-.732.225-.421.198-.671.657-.141.888.459.201.988.263 1.469.397.344.098 5.147.72 5.174.737.203.123.445.077.545-.156.155-.364-.198-.647-.459-.827-.152-.105-.28-.146-.285-.324-.006-.213.259-.56.357-.743a61.051 61.051 0 0 1 1.914-3.294 149.1 149.1 0 0 0 1.239-2.044c.105-.177.215-.352.327-.524.045-.07.114-.231.179-.274.1-.065.3.006.433.027.607.1 1.216.184 1.823.286.544.09 1.091.167 1.639.234.367.066-.218.859.083.997.315.145.574-.275.753-.464.208-.218 1.241-1.554.71-1.602-.321-.03-.513.31-1.204.262-.393-.027-.686-.095-1.074-.141-.885-.106-1.731-.332-2.587-.57.307-.474.628-.937.924-1.418l-.034.043c.531-.777 1.006-1.59 1.522-2.378.386-.589.907-1.715 1.72-1.724.272-.004 2.919.33 3.453.445.596.127 3.128.576 3.181.638.036.041.069.321.1.396Zm11.487 3.276c.511-.664 1.445-.503 2.165-.74.26-.087.594-.244.662-.541.036-.163-.031-.31-.142-.422-.047-.048-.143-.136-.218-.142-.089-.008-.546-.049-.701-.089-.19-.05-3.701-.52-4.585-.647-.814-.118-3.292-.632-3.743-.624-.128.002-.478-.096-.636 0-.073.066-.103.132-.078.094-.047.071-.065.114-.053.208.008.063.077.145.119.188.192.201.36.392.569.571.267.23.449.325.398.721-.051.406-.262.806-.447 1.165-.604 1.172-3.377 5.772-4.125 6.96-.331.526-1.872 3.206-2.199 3.516.117-.115-.091.062-.145.095-.112.07-.234.127-.353.183-.312.15-.637.243-.96.364-.295.11-1.429.442-.924.951.215.217 3.2.641 3.86.812.637.165 4.257.69 4.559.75.236.047.499.138.694-.068.441-.469-.339-.798-.629-1.006-.049-.035-.149-.088-.188-.142-.069-.094-.065-.081-.024-.214.025-.082.052-.164.083-.246a5.56 5.56 0 0 1 .353-.734c.281-.51.537-1.032.841-1.527l-.028.03c.552-.811 2.196-3.713 2.552-4.317.507-.861.992-1.734 1.564-2.553.594-.851 1.126-1.775 1.759-2.595Zm7.886 4.973c.635-.965 1.157-1.984 1.833-2.922.28-.388.522-.8.79-1.194.087-.128.169-.26.266-.38.049-.06.227-.306.313-.34.198-.079.425-.032.969.19.51.169 1.085.509 1.339 1.02.257.516.147 1.187-.01 1.722-.115.392-.341.703-.574 1.029-.304.426-.619.828-.998 1.188-.225.213-.462.413-.698.612-.116.097-.231.194-.349.288-.066.053-.299.29-.379.286-.132-.01-.435-.333-.563-.413-.163-.102-.361-.26-.536-.339-.526-.24-1.011-.381-1.528-.561.045-.06.086-.122.125-.186Zm7.641 10.288c.03-.169-.001-.395-.19-.45-.198-.057-.372.15-.473.292-.255.355-.262.78-.691 1.012-.328.178-.892.228-1.246.187-.438-.052-.692-.518-.848-.918-.6-1.528-.155-2.984-.194-4.554-.03-1.193-.404-2.323-.92-3.385.796-.081 1.592-.233 2.349-.5.736-.261 1.503-.455 2.199-.82 1.153-.603 2.092-1.516 2.348-2.83l.016-.091c-.04.234.015-.101.017-.122.009-.069.013-.138.014-.206 0-.174-.019-.347-.057-.517a3.772 3.772 0 0 0-.428-1.122c-.38-.635-1.037-.976-1.709-1.224-.214-.079-.425-.157-.652-.19a25.33 25.33 0 0 1-.987-.181c-.732-.162-8.597-1.415-8.673-1.445-.151-.06-.301-.016-.457.026-.307.081-.237.33.016.46.252.13.546.191.805.319.149.072.297.08.287.246-.008.11-.118.276-.165.382-.129.29-.278.567-.432.844-.46.826-.979 1.624-1.486 2.42-.435.682-1.915 3.08-2.236 3.59-.297.475-2.518 4.29-2.977 5.028-.144.232-.29.46-.454.677a2.441 2.441 0 0 1-.494.484c-.127.093-.207.11-.358.185-.152.076-.481.215-.458.39.013.107.087.129.165.16.12.048.286.085.416.117.251.063.511.099.767.138.482.073 2.7.538 3.329.69.327.08 1.585.353 1.694-.074.068-.27-.239-.399-.365-.591-.164-.25-.193-.488-.128-.781.125-.563.533-1.043.815-1.537.977-1.717 2.133-3.358 3.273-4.967l.094-.132c.129-.185.129-.216.305-.081.277.212.523.51.645.845.27.74.114 1.576.062 2.343-.055.817-.058 1.63-.062 2.45-.003.777-.107 1.557-.058 2.334.049.77.25 1.544.724 2.157.436.564 1.063.959 1.704 1.25.721.327 1.452.367 2.229.225.682-.125 1.486-.346 2.022-.813.538-.467.772-1.048.902-1.72h.001Z"/><path fill="#000" fill-rule="evenodd" d="M197.563 86.76c.332-.494.658-.986.961-1.498.144-.242.284-.49.417-.74.095-.175.161-.409-.069-.518-.234-.112-.332.1-.469.233-.195.192-.908.431-1.12.135-.092-.127-.071-.44-.084-.598-.026-.303-.051-.608-.103-.908-.128-.712-.35-1.415-.8-2-.245-.317-.963-.742-1.337-.892-.487-.195-1.774-.57-2.132-.626-.501-.079-1.458-.132-1.959-.044-.486.086-2.006.69-2.404 1.024-.807.675-1.258 1.552-1.429 2.578-.203 1.209-.011 2.465.377 3.621.374 1.115.783 2.28 1.13 3.364l.041.134c-.061-.183.002.012.01.043.021.078.043.157.063.236.039.155.075.31.099.467.043.294.044.587.013.881-.068.636-.209 1.248-.54 1.8-.291.485-.733.942-1.34.945-.677.004-1.142-.355-1.549-.859a7.509 7.509 0 0 1-1.427-2.963c-.219-.938-.221-1.93-.485-2.855-.062-.217-.132-.313-.35-.212-.141.066-.768 1.01-.862 1.12-.573.67-1.077 1.461-1.521 2.22-.141.242-.288.482-.437.72-.12.19-.189.395-.309.578-.087.132-.207.245-.147.416.096.273.366.19.543.076.227-.146.447-.303.671-.453.401-.266 1.027-.737 1.544-.658.18.027.635.706.805.917.2.25.339.615.491.9.24.447.562.87.875 1.268.189.24 1.007 1.09 1.155 1.159.316.148.65.302.976.424.992.37 2.192.25 3.222.13 1.085-.127 2.16-.664 2.771-1.58.661-.993 1.026-2.184.856-3.384-.083-.577-.299-1.115-.377-1.69-.089-.646-.258-1.275-.414-1.907-.293-1.185-.618-2.331-.772-3.544-.073-.574-.228-1.251-.096-1.825.128-.56.58-1.064 1.151-1.114.247-.021.63-.036.85.086.284.157.537.339.758.575.416.446.792.94 1.102 1.474.537.928.54 2.045.445 3.08-.029.313-.073.625-.093.94-.011.176-.067.417.01.578.171.362.568-.158.686-.342.195-.308.399-.611.603-.913Zm-9.105 3.138-.012-.038.012.038Zm29.219-5.374c-.036-.327-.364-.425-.635-.485-.438-.096-.879-.182-1.319-.27-.87-.177-4.945-.923-6.131-1.099-1.031-.152-4.9-.879-5.828-.931-.692-.04-1.382-.157-2.071-.232-.303-.034-.461.01-.723.174a2.727 2.727 0 0 0-.504.43c-.15.158-.332.472-.45.596-.136.142-.507.573-.605.744-.2.347-.296.559.067.719.342.15.757-.18 1.037-.352.375-.23.727-.493 1.098-.728.742-.469 1.494-.49 2.341-.395.403.045 2.321.292 2.49.398.181.114-.136.458-.246.607-.27.367-.576.705-.857 1.063-.521.664-1.001 1.368-1.477 2.065-.922 1.35-1.841 2.705-2.693 4.1-.156.256-.319.504-.482.755-.133.202-2.18 3.517-2.657 3.917a2.142 2.142 0 0 1-.881.44c-.32.078-.686.113-.94.349-.311.289-.22.676.14.848.344.166.774.172 1.146.21.776.08 4.539.785 5.698.991.461.081 1.513.424 1.817-.133.192-.355-.076-.722-.291-.982-.134-.162-.349-.327-.373-.54-.062-.536.349-1.074.618-1.521.201-.334.428-.652.637-.981.643-1.008 1.257-2.044 1.936-3.028.167-.242.331-.486.5-.726.444-.63.86-1.289 1.321-1.904.903-1.206 1.625-2.533 2.582-3.7l.392-.472c.028-.034.135-.201.187-.223.153-.066 2.619.505 2.96.598.36.1.547.146.525.552-.018.333-.178.68-.251 1.007-.057.256-.123.723.232.787.311.056.468-.42.591-.639.205-.369 1.09-1.668 1.099-2.008Zm-5.115 14.105c0-1.132-1.224-1.908-2.339-1.738-1.014.155-2.014 1.678-.639 2.205.131.05.604.07.638.204.049.194-.478.381-.606.438-.46.203-.938.189-1.421.309-.174.044-.404.171-.285.375.092.159.452.266.617.325.435.155.897.226 1.359.21 1.355-.055 2.668-1.002 2.676-2.328Zm-18.001 35.509c-.894-.569-2.104-.294-2.889.322-.434.342-.806.76-.768 1.337.031.475.247.917.632 1.206.789.592 2.208.417 2.845-.305.596-.674 1.169-1.932.18-2.56Zm-.363-7.558c.017-.139-.036-.272-.189-.306-.115-.024-.536-.617-1.31.403-.724.956-5.118 3.912-6.398 4.543-.738.366-1.496.689-2.271.967-.702.25-1.391.452-2.146.429-.691-.021-1.388-.135-2.068-.249-.856-.145-2.525-.404-2.497-.413-.338-.135-.885-.247-1.189-.566-.128-.135-.114-.576-.114-.756.001-.795.554-1.534.837-2.257.229-.586.554-1.126.845-1.683.397-.759 4.061-6.687 4.303-7.146.245-.465.52-.918.786-1.371.072-.123.133-.304.256-.34.127-.037.344.022.484.03.525.031 1.045.11 1.566.184.46.066.915.168 1.362.292.186.052.363.076.488.205.157.161.209.373.194.593-.029.482-.233 1.005-.384 1.463-.118.354-.274.694-.395 1.048-.113.332-.368.792-.199 1.136.174.359.582.303.854.101.592-.438.977-1.259 1.362-1.874.46-.736.933-1.461 1.399-2.193.764-1.202 1.704-2.331 2.317-3.621.132-.277.421-.844.262-1.154-.192-.372-.672-.055-.898.099-.799.54-1.343 1.351-2.057 1.985-.35.311-.789.593-1.249.698-.472.107-.936.003-1.4-.096-.598-.128-1.203-.226-1.803-.343a17.418 17.418 0 0 0-.991-.151c.792-1.143 4.38-6.022 5.375-7.352.446-.596.861-1.215 1.315-1.804.473-.615.912-1.28 1.428-1.858.268-.301 1.048-1.151 1.282-1.276.099-.052.7-.031.817-.044.154-.017.386.06.538.084.82.129 1.643.255 2.46.405.798.142 1.587.337 2.359.585 1.011.328 2.184.845 2.573 1.925.17.474.165.967.167 1.464.001.532-.048 1.056-.214 1.564-.265.812-.563 1.608-.774 2.436-.099.391-.885 2.091.009 2.061.508-.018.833-.694 1.12-1.028.308-.358.546-.775.766-1.206.427-.835 1.01-1.585 1.549-2.349.431-.612.824-1.274 1.216-1.912.445-.726.906-1.478 1.137-2.305.117-.418.219-.968-.13-1.303-.297-.286-2.638-.561-3.376-.686-.819-.138-1.635-.29-2.457-.412-.331-.049-7.746-1.361-8.734-1.559-.876-.176-6.15-1.378-6.588-1.525-.226-.075-.689-.313-.844.022a.543.543 0 0 0-.051.281c.015.025.057.169.091.219.121.188.319.58.34.705.038.228.052.456.03.687-.032.373-.221.572-.442.857-.425.548-.859 1.091-1.271 1.65-.925 1.256-1.766 2.568-2.642 3.857-.956 1.406-2.013 2.745-2.947 4.164-.693 1.053-1.314 2.168-1.925 3.27-.457.824-1.008 1.577-1.523 2.364-.41.634-.8 1.281-1.17 1.939-.443.777-.901 1.546-1.475 2.235-.362.435-3.315 5.304-3.625 5.926-.149.302-.302.599-.478.886-.187.304-.356.752-.705.906-.464.202-.935.39-1.41.564-.279.103-.599.176-.807.404-.292.318-.181.738.199.905.609.267 1.376.265 2.034.336.693.075 1.375.199 2.059.332 1.262.247 10.282 1.762 11.873 1.953.692.083 1.381.171 2.064.312.725.15 1.456.227 2.171.421.924.248 1.857.46 2.798.634.353.067.676.033.988-.165.301-.19.897-1.298 1.033-1.565.194-.381 1.253-2.62 1.672-3.314.484-.801 2.335-4.069 2.368-4.347Z"/></svg>