<svg xmlns="http://www.w3.org/2000/svg" width="30" height="25" fill="none"><path fill="#333" d="M30 2.96c-1.104.502-2.29.84-3.535.993A6.297 6.297 0 0 0 29.171.461a12.14 12.14 0 0 1-3.909 1.532A6.075 6.075 0 0 0 20.77 0c-3.974 0-6.894 3.802-5.996 7.749C9.66 7.486 5.125 4.973 2.089 1.155.476 3.992 1.252 7.702 3.993 9.582a6.021 6.021 0 0 1-2.787-.79c-.067 2.923 1.977 5.659 4.936 6.268a6.021 6.021 0 0 1-2.78.107c.783 2.508 3.055 4.332 5.75 4.383A12.154 12.154 0 0 1 0 22.165 17.109 17.109 0 0 0 9.435 25C20.863 25 27.32 15.104 26.93 6.227A12.718 12.718 0 0 0 30 2.959Z"/></svg>