<svg xmlns="http://www.w3.org/2000/svg" width="30" height="30" fill="none"><path fill="#333" fill-rule="evenodd" d="M15 0c-4.074 0-4.584.018-6.184.09C3.37.34.341 3.362.091 8.815.017 10.416 0 10.926 0 15s.017 4.585.09 6.185c.25 5.447 3.273 8.475 8.725 8.725 1.601.072 2.111.09 6.185.09s4.585-.018 6.185-.09c5.442-.25 8.478-3.272 8.724-8.725.074-1.6.091-2.111.091-6.185s-.017-4.584-.09-6.184C29.665 3.374 26.639.341 21.186.091 19.585.018 19.074 0 15 0Zm6.063 2.792c-1.583-.073-2.058-.088-6.063-.088s-4.479.015-6.061.086C4.87 2.975 2.976 4.905 2.79 8.939c-.071 1.582-.087 2.056-.087 6.061 0 4.006.015 4.48.087 6.061.185 4.026 2.074 5.964 6.149 6.15 1.581.073 2.056.088 6.061.088 4.008 0 4.48-.015 6.063-.088 4.068-.185 5.962-2.117 6.148-6.148.072-1.582.087-2.055.087-6.061 0-4.005-.014-4.48-.087-6.062-.185-4.035-2.083-5.963-6.148-6.148Zm.143 4.202a1.8 1.8 0 1 1 3.601 0 1.8 1.8 0 0 1-3.6 0ZM7.297 15a7.703 7.703 0 1 1 15.406 0 7.703 7.703 0 0 1-15.406 0ZM15 20a5 5 0 1 1 0-10 5 5 0 0 1 0 10Z" clip-rule="evenodd"/></svg>