<svg xmlns="http://www.w3.org/2000/svg" width="235" height="24" fill="none"><path fill="#555" fill-rule="evenodd" d="M42.66 23.24c-.979.473-2.12.71-3.423.71q-1.94 0-3.5-.769h-.002q-.104-.052-.206-.107-.668-.357-1.22-.844-.804-.709-1.364-1.693Q32 18.876 32 16.497q0-2.128.845-3.837.068-.137.141-.271.513-.942 1.236-1.679.666-.678 1.51-1.181.084-.05.17-.097 1.702-.953 3.938-.953 2.004 0 3.382.595 1.377.595 2.102 1.612.351.492.532 1.04.194.584.194 1.232 0 1.109-.533 1.817-.103.137-.225.258-.134.132-.284.24-.704.512-1.778.512-1.144 0-1.816-.563-.114-.095-.213-.205c-.462-.513-.693-1.215-.693-2.108v-1.058q0-.81-.294-1.223c-.195-.276-.472-.413-.83-.413q-.152 0-.294.034-.366.089-.677.404c-.287.292-.51.73-.668 1.314q-.236.876-.236 2.165c0 1.234.182 2.27.546 3.108.364.837.861 1.465 1.491 1.884q.303.2.632.337.7.291 1.52.291c.804 0 1.477-.118 2.02-.355.544-.237.962-.637 1.256-1.199.163-.154.29-.253.383-.297a.624.624 0 0 1 .269-.067.374.374 0 0 1 .269.158c.06.08.091.201.091.361 0 .025 0 .05-.002.077-.087 1.08-.418 2.033-.994 2.86-.576.826-1.353 1.476-2.33 1.95Zm16.567-.33c-1.222.671-2.643 1.008-4.262 1.008q-2.364 0-4.148-.984-1.006-.555-1.761-1.348-.584-.614-1.018-1.371l-.064-.113q-.93-1.697-.93-3.904 0-1.629.581-3.013.197-.47.462-.912c.695-1.163 1.657-2.085 2.885-2.77l.08-.043q1.814-.98 4.157-.98 2.38 0 4.156.991a7.106 7.106 0 0 1 2.771 2.744c.663 1.168.994 2.518.994 4.05 0 1.454-.345 2.757-1.035 3.908-.69 1.152-1.646 2.064-2.868 2.736Zm-3.023-.712c-.337.067-.666-.082-.986-.446-.321-.363-.625-.975-.913-1.834q-.432-1.29-.823-3.39c-.25-1.399-.392-2.55-.424-3.454-.005-.15-.008-.295-.008-.433q0-1.037.204-1.616c.163-.463.412-.733.75-.81.336-.066.665.082.985.446.32.364.628.975.921 1.835.294.86.57 1.989.831 3.388.261 1.4.405 2.554.432 3.463.004.126.006.248.006.366 0 .73-.073 1.293-.218 1.692-.168.463-.42.727-.758.793Zm18.547.661c0 .507-.255.76-.766.76H64.99a.744.744 0 0 1-.53-.19c-.136-.126-.204-.305-.204-.536 0-.199.046-.358.139-.48a.979.979 0 0 1 .431-.297l.701-.215q.13-.041.231-.119.103-.079.177-.195c.098-.154.147-.375.147-.661v-9.554a.644.644 0 0 0-.115-.389c-.076-.104-.217-.2-.423-.289l-.946-.314c-.25-.121-.429-.25-.537-.388q-.037-.046-.065-.097-.098-.176-.098-.407c0-.199.067-.361.203-.488l.054-.044c.13-.098.3-.146.508-.146h1.43l-.01-.097a1.341 1.341 0 0 0-.23-.556l-.554-.802q-.31-.446-.554-1.066-.244-.62-.244-1.529 0-1.4.613-2.438.335-.566.853-1.025C66.944.433 68.336 0 70.14 0c1.163 0 2.127.188 2.893.562.766.375 1.34.873 1.72 1.496.38.623.57 1.303.57 2.041q0 1.26-.63 1.912l-.046.047c-.451.435-1.03.653-1.736.653-.783 0-1.413-.253-1.891-.76-.478-.508-.717-1.18-.717-2.017V2.463q0-.579-.228-.852c-.152-.181-.386-.272-.701-.272-.402 0-.706.138-.913.413-.206.275-.31.672-.31 1.19 0 .53.123 1.025.367 1.488l.007.013q.365.686.898 1.284c.358.402.717.788 1.076 1.157q.537.554.904 1.091l.07.108q.198.321.264.64l.015.087h2.414q.374 0 .578.157c.136.105.204.267.204.488 0 .33-.141.6-.424.81-.282.209-.728.314-1.336.314H72.03v10.297c0 .309.046.545.138.71a.59.59 0 0 0 .448.298l1.402.215c.25.033.435.113.554.24.12.126.18.3.18.52Zm11.377 0c0 .507-.255.76-.766.76h-8.997a.744.744 0 0 1-.53-.19c-.135-.126-.203-.305-.203-.536 0-.199.046-.358.138-.48a.979.979 0 0 1 .432-.297l.7-.215q.13-.041.232-.119.103-.079.176-.195c.098-.154.147-.375.147-.661v-9.554a.644.644 0 0 0-.114-.389c-.076-.104-.217-.2-.424-.289l-.945-.314c-.25-.121-.43-.25-.538-.388q-.036-.046-.065-.097-.098-.176-.098-.407c0-.199.068-.361.204-.488l.053-.044c.13-.098.3-.146.509-.146h1.43l-.011-.097a1.341 1.341 0 0 0-.23-.556c-.162-.237-.347-.504-.553-.802q-.31-.446-.554-1.066-.245-.62-.245-1.529 0-1.4.614-2.438.335-.566.853-1.025C78.32.433 79.712 0 81.515 0c1.163 0 2.127.188 2.893.562.766.375 1.34.873 1.72 1.496.38.623.57 1.303.57 2.041 0 .87-.225 1.524-.676 1.959-.451.435-1.03.653-1.736.653-.782 0-1.412-.253-1.89-.76-.479-.508-.718-1.18-.718-2.017V2.463q0-.579-.228-.852c-.152-.181-.386-.272-.7-.272-.403 0-.707.138-.913.413-.207.275-.31.672-.31 1.19 0 .53.122 1.025.367 1.488l.006.013q.365.686.898 1.284c.359.402.717.788 1.076 1.157q.538.554.904 1.091l.07.108q.198.321.264.64l.015.087h2.414q.375 0 .579.157c.136.105.203.267.203.488 0 .33-.14.6-.423.81-.283.209-.728.314-1.337.314h-1.157v10.297c0 .309.046.545.139.71a.59.59 0 0 0 .448.298l1.401.215c.25.033.435.113.555.24.12.126.179.3.179.52Zm11.996.282c-1.054.54-2.271.81-3.651.81-1.521 0-2.858-.317-4.01-.951a6.822 6.822 0 0 1-2.697-2.661c-.647-1.14-.97-2.46-.97-3.959 0-1.576.313-2.956.937-4.14a6.684 6.684 0 0 1 2.714-2.769c1.184-.66 2.608-.992 4.27-.992 1.413 0 2.63.279 3.651.835 1.022.557 1.807 1.312 2.355 2.265q.229.396.394.817.429 1.098.429 2.364c0 .507-.135.906-.407 1.199l-.065.064c-.268.25-.637.373-1.108.373h-7.451l.016.077c.197.907.535 1.634 1.013 2.18.815.931 1.901 1.397 3.26 1.397.869 0 1.638-.199 2.306-.595.668-.397 1.116-.948 1.344-1.653.131-.144.248-.24.351-.29a.644.644 0 0 1 .269-.074c.108 0 .201.044.277.132.076.088.114.237.114.447a5.31 5.31 0 0 1-.88 2.966c-.587.898-1.407 1.618-2.461 2.158Zm-5.78-8.07q-.023-.38-.023-.79c0-1.036.076-1.851.229-2.447.152-.594.347-1.016.586-1.264.24-.248.506-.372.799-.372.38 0 .736.325 1.067.975q.498.976.498 3.24c0 .463-.207.694-.62.694h-2.533l-.002-.035Zm21.361 8.07c-1.054.54-2.271.81-3.651.81-1.521 0-2.857-.317-4.009-.951a6.825 6.825 0 0 1-2.698-2.661c-.646-1.14-.969-2.46-.969-3.959 0-1.576.312-2.956.937-4.14a6.682 6.682 0 0 1 2.714-2.769c1.184-.66 2.607-.992 4.27-.992 1.412 0 2.629.279 3.651.835 1.021.557 1.806 1.312 2.355 2.265.549.953.823 2.013.823 3.181 0 .507-.136.906-.407 1.199l-.065.064c-.268.25-.638.373-1.109.373h-7.451l.016.077c.198.907.536 1.634 1.013 2.18q.447.51 1.001.833.965.564 2.259.564c.869 0 1.638-.199 2.306-.595.669-.397 1.117-.948 1.345-1.653.13-.144.247-.24.35-.29a.648.648 0 0 1 .269-.074c.109 0 .201.044.277.132.076.088.114.237.114.447a5.31 5.31 0 0 1-.88 2.966c-.586.898-1.407 1.618-2.461 2.158Zm-5.779-8.07q-.023-.38-.023-.79c0-1.036.076-1.851.228-2.447.152-.594.348-1.016.587-1.264q.27-.28.586-.349.104-.023.213-.023c.38 0 .736.325 1.067.975.331.65.497 1.73.497 3.24q0 .387-.192.558-.153.136-.427.136h-2.534l-.002-.035Zm19.674 8.342c-.136.138-.334.207-.595.207h-8.149c-.239 0-.427-.066-.563-.199-.135-.132-.203-.314-.203-.545a.74.74 0 0 1 .122-.438q.122-.173.334-.322l.375-.15q.112-.052.188-.137.067-.076.105-.176c.055-.143.082-.38.082-.71v-8.398c0-.264-.03-.454-.09-.57a.618.618 0 0 0-.301-.272l-.424-.05a1.037 1.037 0 0 1-.334-.28.638.638 0 0 1-.106-.381.74.74 0 0 1 .163-.472c.108-.137.293-.255.554-.354l4.629-1.34c.271-.11.5-.187.684-.23q.277-.067.473-.067c.185 0 .323.066.415.198l.03.048c.076.139.129.36.158.663l.124 2.568.028-.094c.055-.18.116-.351.182-.516.397-.985.921-1.718 1.573-2.198q.608-.447 1.286-.616.412-.103.849-.103c.934 0 1.652.314 2.151.942.5.629.75 1.582.75 2.86q0 1.9-.782 2.793c-.522.595-1.195.893-2.021.893q-1.189 0-1.768-.594l-.017-.018c-.386-.407-.589-.986-.611-1.735l-.016-.661c-.011-.254-.06-.452-.147-.595-.087-.144-.228-.215-.424-.215-.195 0-.367.102-.513.306-.147.203-.258.515-.334.934q-.115.628-.115 1.603v5.818c0 .309.049.554.147.735a.65.65 0 0 0 .457.34l1.222.247q.322.047.471.232l.018.025q.033.047.059.097.088.173.088.39c0 .22-.068.4-.204.537Zm17.293-.504c-1.223.672-2.643 1.009-4.262 1.009-1.576 0-2.959-.329-4.148-.984q-1.006-.555-1.761-1.348-.585-.614-1.018-1.371-.033-.056-.064-.113-.93-1.697-.93-3.904c0-1.454.347-2.763 1.043-3.925.695-1.163 1.657-2.085 2.884-2.77l.081-.043q1.814-.98 4.157-.98c1.587 0 2.972.33 4.156.991a7.104 7.104 0 0 1 2.771 2.744l.05.09q.944 1.72.944 3.96c0 1.454-.345 2.757-1.035 3.908-.69 1.152-1.646 2.064-2.868 2.736Zm-3.024-.71c-.336.066-.665-.083-.986-.447-.32-.363-.624-.975-.912-1.834q-.432-1.29-.824-3.39c-.249-1.399-.391-2.55-.423-3.454q-.008-.225-.008-.433c0-.692.067-1.23.203-1.616.163-.463.413-.733.75-.81.337-.066.666.082.986.446.321.364.628.975.921 1.835q.44 1.29.831 3.388c.261 1.4.405 2.554.432 3.463.004.126.006.248.006.366 0 .73-.073 1.293-.218 1.692-.168.463-.421.727-.758.793Zm22.101 1.247c-.586.336-1.336.504-2.249.504-1.097 0-1.948-.234-2.551-.702l-.103-.084c-.334-.283-.563-.603-.688-.96l-.024-.074-.023.029c-.397.49-.914.886-1.549 1.188a6.308 6.308 0 0 1-2.739.603q-1.758 0-2.891-.842-.127-.094-.246-.199c-.788-.694-1.182-1.581-1.182-2.661 0-1.421.574-2.529 1.72-3.322 1.146-.794 2.887-1.19 5.224-1.19l.175.001c.345.008.649.036.911.087l.087.019v-4.818c0-.386-.09-.691-.269-.918a.876.876 0 0 0-.725-.338 1.02 1.02 0 0 0-.709.256c-.19.17-.285.41-.285.719V12q0 .78-.333 1.377-.188.337-.482.615c-.544.512-1.288.768-2.233.768q-1.157 0-1.769-.553c-.407-.37-.611-.907-.611-1.612q0-.06.003-.12.047-.93.82-1.822c.549-.634 1.369-1.154 2.461-1.562 1.092-.408 2.453-.612 4.083-.612q3.146 0 4.621 1.199c.983.799 1.475 1.925 1.475 3.38v7.306c0 .21.046.377.138.504.093.127.231.19.416.19q.067 0 .131-.014.123-.025.236-.102c.114-.077.198-.215.252-.413a.333.333 0 0 1 .114-.1.324.324 0 0 1 .147-.032q.072 0 .132.026.09.04.153.139c.071.11.106.248.106.413 0 .386-.144.81-.432 1.273-.288.463-.725.862-1.312 1.198Zm-6.812-2.074c-.435 0-.786-.18-1.052-.538-.266-.357-.399-.906-.399-1.644 0-.771.128-1.356.383-1.752.255-.396.595-.595 1.019-.595.25 0 .467.025.652.075l.081.024v4.242l-.053.03a1.36 1.36 0 0 1-.538.155l-.093.003Zm20.503 1.29c-1.032.892-2.515 1.338-4.449 1.338q-.978 0-1.622-.182a7.57 7.57 0 0 1-1.043-.363c-.266-.121-.481-.182-.644-.182-.163 0-.378.06-.644.182l-.798.363q-.4.182-.677.182a.726.726 0 0 1-.456-.166c-.141-.11-.25-.33-.326-.66l-.505-3.29a3.005 3.005 0 0 1-.088-.682c0-.136.013-.261.039-.375.065-.287.212-.475.44-.562a.84.84 0 0 1 .709-.017c.233.1.443.275.627.529.62.958 1.179 1.713 1.679 2.264.5.551.986.94 1.459 1.165a3.4 3.4 0 0 0 1.491.34c.554 0 .967-.133 1.239-.397.271-.265.407-.6.407-1.008 0-.309-.078-.59-.236-.844-.158-.253-.446-.487-.864-.702-.418-.215-1.019-.427-1.801-.636-1.206-.31-2.206-.711-2.999-1.207-.793-.496-1.382-1.09-1.768-1.785-.386-.694-.579-1.504-.579-2.43 0-1.047.258-1.948.774-2.703.516-.754 1.223-1.335 2.119-1.743q1.345-.612 3.024-.612c.673 0 1.222.066 1.646.199.424.132.752.264.986.396.233.133.41.199.53.199.13 0 .323-.064.578-.19.255-.127.514-.251.774-.372q.391-.182.652-.182c.196 0 .353.066.473.198.119.132.201.358.244.678l.424 3.041c.045.258.067.48.067.668 0 .134-.012.25-.034.349a.576.576 0 0 1-.424.455q-.032.007-.065.012-.248.033-.522-.12a2.245 2.245 0 0 1-.619-.554c-.793-1.2-1.519-2.05-2.176-2.545-.657-.496-1.355-.744-2.094-.744q-.799 0-1.206.347a1.136 1.136 0 0 0-.408.91c0 .253.06.49.179.71q.18.33.66.62c.321.193.775.383 1.361.57 1.576.485 2.798 1 3.668 1.545.869.546 1.477 1.171 1.825 1.876.348.705.522 1.527.522 2.463 0 1.543-.516 2.76-1.549 3.653Zm11.002.718q-1.076.57-2.543.57c-1.651 0-2.893-.402-3.724-1.206-.831-.805-1.247-2.072-1.247-3.802v-7.47a1.66 1.66 0 0 0-.065-.53c-.043-.121-.152-.22-.326-.297l-.766-.248c-.185-.088-.304-.196-.359-.323a1.202 1.202 0 0 1-.081-.47c0-.232.081-.422.244-.57a.86.86 0 0 1 .603-.224h.799q.147 0 .31-.116c.108-.077.255-.231.44-.463l3.015-2.528q.326-.397.652-.604.326-.206.652-.206c.25 0 .445.077.587.231l.044.055c.112.154.168.379.168.672l-.001 2.96h3.407c.239 0 .424.051.554.156.131.105.196.267.196.488 0 .308-.136.572-.408.793l-.06.046c-.274.19-.689.285-1.244.285h-2.445l.001 7.537c0 .826.138 1.438.415 1.834.277.397.682.595 1.214.595.229 0 .441-.049.636-.149a2.02 2.02 0 0 0 .53-.388c.157-.16.307-.339.448-.537.141-.198.277-.397.408-.595a.242.242 0 0 1 .285.058c.072.073.108.212.108.418l-.002.086c-.076.893-.324 1.678-.742 2.356a4.366 4.366 0 0 1-1.703 1.586Zm14.326-.24c-1.054.54-2.271.81-3.65.81-1.522 0-2.858-.316-4.01-.95a6.816 6.816 0 0 1-2.697-2.661c-.647-1.14-.97-2.46-.97-3.959q0-2.363.937-4.14a6.682 6.682 0 0 1 2.714-2.769q1.776-.992 4.27-.992c1.413 0 2.629.279 3.651.835q1.054.575 1.773 1.43.325.389.582.835c.549.953.823 2.013.823 3.181 0 .507-.136.906-.407 1.199l-.065.064c-.268.25-.637.373-1.109.373h-7.451l.016.077c.198.907.536 1.634 1.013 2.18q.447.51 1.002.833.965.564 2.258.564c.869 0 1.638-.199 2.306-.595.669-.397 1.117-.948 1.345-1.653a1.24 1.24 0 0 1 .351-.29.64.64 0 0 1 .268-.074c.109 0 .201.044.278.132.076.088.114.237.114.447 0 1.08-.294 2.068-.88 2.966-.587.898-1.408 1.618-2.462 2.158Zm-5.779-8.068q-.023-.38-.023-.791c0-1.036.076-1.851.228-2.447.152-.594.348-1.016.587-1.264s.505-.372.799-.372c.38 0 .736.325 1.067.975.332.65.497 1.73.497 3.24 0 .463-.206.694-.619.694h-2.534l-.002-.035Zm19.674 8.341c-.136.138-.334.207-.595.207h-8.149c-.239 0-.427-.066-.563-.199-.135-.132-.203-.314-.203-.545a.74.74 0 0 1 .122-.438q.122-.173.334-.322l.375-.15q.113-.052.188-.137.067-.076.105-.176c.055-.143.082-.38.082-.71v-8.398c0-.264-.03-.454-.09-.57l-.018-.032q-.092-.151-.283-.24l-.424-.05a1.037 1.037 0 0 1-.334-.28.638.638 0 0 1-.106-.381.74.74 0 0 1 .163-.472c.108-.137.293-.255.554-.354l4.629-1.34q.407-.165.684-.23a2.08 2.08 0 0 1 .473-.067c.185 0 .323.066.416.198l.029.048c.076.139.129.36.158.663l.124 2.569.028-.095c.055-.18.116-.351.182-.516q.595-1.479 1.573-2.198c.652-.479 1.364-.719 2.135-.719.935 0 1.652.314 2.152.942.499.629.749 1.582.749 2.86 0 1.267-.26 2.198-.782 2.793-.522.595-1.195.893-2.021.893-.804 0-1.399-.204-1.785-.612-.386-.407-.589-.986-.611-1.735l-.016-.661c-.011-.254-.06-.452-.147-.595-.087-.144-.228-.215-.424-.215-.195 0-.366.102-.513.306-.147.203-.258.515-.334.934-.076.418-.114.953-.114 1.603v5.818c0 .309.049.554.146.735a.65.65 0 0 0 .457.34l1.222.247c.228.034.391.118.489.257.098.137.147.3.147.487 0 .22-.068.4-.204.537Zm16.568-.752c-1.033.893-2.516 1.339-4.45 1.339q-.978 0-1.622-.182a7.57 7.57 0 0 1-1.043-.363c-.266-.121-.481-.182-.644-.182-.163 0-.377.06-.643.182l-.799.363q-.399.182-.676.182a.73.73 0 0 1-.457-.166c-.141-.11-.25-.33-.326-.66l-.505-3.29a3.005 3.005 0 0 1-.088-.682c0-.136.013-.261.039-.375.065-.287.212-.475.44-.562a.84.84 0 0 1 .709-.017c.234.1.443.275.628.529.619.958 1.179 1.713 1.678 2.264.5.551.987.94 1.459 1.165.473.227.97.34 1.492.34.554 0 .967-.133 1.238-.397.272-.265.408-.6.408-1.008 0-.309-.079-.59-.237-.844-.157-.253-.445-.487-.863-.702-.419-.215-1.019-.427-1.801-.636-1.207-.31-2.206-.711-2.999-1.207-.794-.496-1.383-1.09-1.769-1.785-.386-.694-.578-1.504-.578-2.43 0-1.047.258-1.948.774-2.703.516-.754 1.222-1.335 2.119-1.743q1.344-.612 3.023-.612c.674 0 1.222.066 1.646.199.424.132.753.264.986.396.234.133.41.199.53.199.13 0 .323-.064.579-.19.255-.127.513-.251.774-.372q.391-.182.652-.182c.195 0 .353.066.472.198.12.132.201.358.245.678l.424 3.041c.044.258.066.48.066.668 0 .134-.011.25-.034.349a.573.573 0 0 1-.424.455q-.032.007-.065.012-.248.033-.521-.12c-.207-.116-.413-.3-.62-.554-.793-1.2-1.518-2.05-2.176-2.545-.657-.496-1.355-.744-2.094-.744q-.799 0-1.206.347a1.136 1.136 0 0 0-.408.91c0 .253.06.49.18.71q.179.33.66.62c.32.193.774.383 1.361.57 1.575.485 2.798 1 3.667 1.545.869.546 1.478 1.171 1.825 1.876.348.705.522 1.527.522 2.463 0 1.543-.516 2.76-1.548 3.653Z" clip-rule="evenodd"/><path fill="#0A775F" fill-rule="evenodd" d="M13.49 3.002C9.974-.508 4.765-1.014 1.876 1.877-1.013 4.768-.508 9.978 3 13.491a10.6 10.6 0 0 0 3.153 2.164c.374-2.17 1.444-4.257 3.07-5.97a22.944 22.944 0 0 0-1.666-.511c-3.41-.936-5.106-3.782-5.502-7.118.963 1.158 1.673 2.483 2.852 3.453 1.257 1.035 2.641 1.41 4.16 1.851a7.17 7.17 0 0 1 1.836.84c1.443-1.054 3.07-1.756 4.75-2.046a10.573 10.573 0 0 0-2.164-3.152ZM7.545 16.49c.224-2.174 1.277-4.3 2.964-5.987 3.515-3.511 8.724-4.019 11.613-1.125 2.89 2.89 2.387 8.1-1.126 11.613-1.688 1.688-3.813 2.74-5.987 2.965-.29.03-.576.044-.856.044-1.87 0-3.539-.655-4.769-1.885-1.416-1.415-2.07-3.413-1.839-5.625Zm8.895.186c-1.356.37-2.602.718-3.754 1.597-1.317 1.007-2.082 2.41-3.125 3.663.381-3.283 2.031-6.105 5.369-7.074 1.52-.441 2.904-.818 4.16-1.85 1.181-.972 1.89-2.294 2.852-3.454-.397 3.336-2.09 6.182-5.502 7.118Z" clip-rule="evenodd"/></svg>