<svg xmlns="http://www.w3.org/2000/svg" width="24" height="24" fill="none"><path fill="#0A775F" fill-rule="evenodd" d="M13.49 3.003C9.974-.51 4.765-1.014 1.876 1.878-1.013 4.768-.508 9.978 3 13.49a10.606 10.606 0 0 0 3.153 2.164c.374-2.17 1.444-4.257 3.07-5.97a23.04 23.04 0 0 0-1.666-.511c-3.41-.936-5.106-3.782-5.502-7.118.963 1.158 1.673 2.483 2.852 3.453 1.257 1.035 2.641 1.41 4.16 1.851a7.17 7.17 0 0 1 1.836.84c1.443-1.054 3.07-1.756 4.75-2.046a10.573 10.573 0 0 0-2.164-3.151ZM7.545 16.489c.224-2.173 1.277-4.299 2.964-5.986 3.515-3.512 8.724-4.019 11.613-1.125 2.89 2.89 2.387 8.1-1.126 11.613-1.688 1.688-3.813 2.74-5.987 2.965-.29.029-.576.044-.856.044-1.87 0-3.539-.655-4.769-1.886-1.416-1.414-2.07-3.412-1.839-5.625Zm8.895.186c-1.356.37-2.602.719-3.754 1.598-1.317 1.006-2.082 2.41-3.125 3.663.381-3.284 2.031-6.105 5.369-7.074 1.52-.441 2.904-.818 4.16-1.851 1.181-.97 1.89-2.294 2.852-3.453-.397 3.336-2.09 6.181-5.502 7.117Z" clip-rule="evenodd"/></svg>